<svg width="24" height="24" viewBox="0 0 24 24" fill="none" xmlns="http://www.w3.org/2000/svg">
<path fill-rule="evenodd" clip-rule="evenodd" d="M10.9341 2.93414C12.0125 1.8558 13.475 1.25 15 1.25H18C18.4142 1.25 18.75 1.58579 18.75 2V6C18.75 6.41421 18.4142 6.75 18 6.75H15C14.9337 6.75 14.8701 6.77634 14.8232 6.82322C14.7763 6.87011 14.75 6.9337 14.75 7V9.25H18C18.231 9.25 18.449 9.35641 18.5912 9.53844C18.7333 9.72048 18.7836 9.95785 18.7276 10.1819L17.7276 14.1819C17.6441 14.5158 17.3442 14.75 17 14.75H14.75V22C14.75 22.4142 14.4142 22.75 14 22.75H10C9.58579 22.75 9.25 22.4142 9.25 22V14.75H7C6.58579 14.75 6.25 14.4142 6.25 14V10C6.25 9.58579 6.58579 9.25 7 9.25H9.25V7C9.25 5.47501 9.8558 4.01247 10.9341 2.93414ZM15 2.75C13.8728 2.75 12.7918 3.19777 11.9948 3.9948C11.1978 4.79183 10.75 5.87283 10.75 7V10C10.75 10.4142 10.4142 10.75 10 10.75H7.75V13.25H10C10.4142 13.25 10.75 13.5858 10.75 14V21.25H13.25V14C13.25 13.5858 13.5858 13.25 14 13.25H16.4144L17.0394 10.75H14C13.5858 10.75 13.25 10.4142 13.25 10V7C13.25 6.53587 13.4344 6.09075 13.7626 5.76256C14.0908 5.43438 14.5359 5.25 15 5.25H17.25V2.75H15Z" fill="#F8FBFB"/>
</svg>
