<svg width="24" height="24" viewBox="0 0 24 24" fill="none" xmlns="http://www.w3.org/2000/svg">
<path d="M12.001 9C11.2054 9 10.4423 9.31607 9.87968 9.87868C9.31707 10.4413 9.001 11.2044 9.001 12C9.001 12.7957 9.31707 13.5587 9.87968 14.1213C10.4423 14.6839 11.2054 15 12.001 15C12.7967 15 13.5597 14.6839 14.1223 14.1213C14.6849 13.5587 15.001 12.7957 15.001 12C15.001 11.2044 14.6849 10.4413 14.1223 9.87868C13.5597 9.31607 12.7967 9 12.001 9ZM12.001 7C13.3271 7 14.5989 7.52678 15.5365 8.46447C16.4742 9.40215 17.001 10.6739 17.001 12C17.001 13.3261 16.4742 14.5979 15.5365 15.5355C14.5989 16.4732 13.3271 17 12.001 17C10.6749 17 9.40315 16.4732 8.46547 15.5355C7.52779 14.5979 7.001 13.3261 7.001 12C7.001 10.6739 7.52779 9.40215 8.46547 8.46447C9.40315 7.52678 10.6749 7 12.001 7ZM18.501 6.75C18.501 7.08152 18.3693 7.39946 18.1349 7.63388C17.9005 7.8683 17.5825 8 17.251 8C16.9195 8 16.6015 7.8683 16.3671 7.63388C16.1327 7.39946 16.001 7.08152 16.001 6.75C16.001 6.41848 16.1327 6.10054 16.3671 5.86612C16.6015 5.6317 16.9195 5.5 17.251 5.5C17.5825 5.5 17.9005 5.6317 18.1349 5.86612C18.3693 6.10054 18.501 6.41848 18.501 6.75ZM12.001 4C9.527 4 9.123 4.007 7.972 4.058C7.188 4.095 6.662 4.2 6.174 4.39C5.76583 4.54037 5.39672 4.78064 5.094 5.093C4.78127 5.39562 4.54066 5.76474 4.39 6.173C4.2 6.663 4.095 7.188 4.059 7.971C4.007 9.075 4 9.461 4 12C4 14.475 4.007 14.878 4.058 16.029C4.095 16.812 4.2 17.339 4.389 17.826C4.559 18.261 4.759 18.574 5.091 18.906C5.428 19.242 5.741 19.443 6.171 19.609C6.665 19.8 7.191 19.906 7.971 19.942C9.075 19.994 9.461 20 12 20C14.475 20 14.878 19.993 16.029 19.942C16.811 19.905 17.337 19.8 17.826 19.611C18.2342 19.4606 18.6033 19.2204 18.906 18.908C19.243 18.572 19.444 18.259 19.61 17.828C19.8 17.336 19.906 16.81 19.942 16.028C19.994 14.925 20 14.538 20 12C20 9.526 19.993 9.122 19.942 7.971C19.905 7.189 19.799 6.661 19.61 6.173C19.4596 5.76483 19.2194 5.39572 18.907 5.093C18.6044 4.78027 18.2353 4.53966 17.827 4.389C17.337 4.199 16.811 4.094 16.029 4.058C14.926 4.006 14.54 4 12 4M12 2C14.717 2 15.056 2.01 16.123 2.06C17.187 2.11 17.913 2.277 18.55 2.525C19.21 2.779 19.766 3.123 20.322 3.678C20.8307 4.17773 21.2242 4.78247 21.475 5.45C21.722 6.087 21.89 6.813 21.94 7.878C21.987 8.944 22 9.283 22 12C22 14.717 21.99 15.056 21.94 16.122C21.89 17.188 21.722 17.912 21.475 18.55C21.2242 19.2175 20.8307 19.8223 20.322 20.322C19.8223 20.8307 19.2175 21.2242 18.55 21.475C17.913 21.722 17.187 21.89 16.123 21.94C15.056 21.987 14.717 22 12 22C9.283 22 8.944 21.99 7.877 21.94C6.813 21.89 6.088 21.722 5.45 21.475C4.78247 21.2242 4.17773 20.8307 3.678 20.322C3.16931 19.8223 2.77582 19.2175 2.525 18.55C2.277 17.913 2.11 17.187 2.06 16.122C2.012 15.056 2 14.717 2 12C2 9.283 2.01 8.944 2.06 7.878C2.11 6.812 2.277 6.088 2.525 5.45C2.77582 4.78247 3.16931 4.17773 3.678 3.678C4.17773 3.16931 4.78247 2.77582 5.45 2.525C6.087 2.277 6.812 2.11 7.877 2.06C8.945 2.013 9.284 2 12.001 2" fill="#F8FBFB"/>
</svg>
