<svg width="78" height="58" viewBox="0 0 78 58" fill="none" xmlns="http://www.w3.org/2000/svg">
<path fill-rule="evenodd" clip-rule="evenodd" d="M28.989 33.5195C24.0968 34.8355 20.1694 35.7275 14.8688 36.7267C13.079 37.0641 11.5948 37.3667 11.5707 37.3992C11.5464 37.4316 11.3778 38.2476 11.1956 39.2122C11.0135 40.177 10.6627 41.4616 10.4159 42.0667L9.96729 43.1671L8.16085 43.3687C6.11042 43.5975 5.65205 43.8392 5.2442 44.907C4.80236 46.0637 4.96102 47.1398 5.71271 48.0835C5.9771 48.4156 6.24375 48.5367 6.82532 48.5885C7.24596 48.6261 12.8098 48.1244 19.1895 47.4738L30.7889 46.2909L31.0555 46.7801C32.4324 49.3069 34.2535 50.8225 36.7188 51.4935C37.6568 51.7489 40.589 51.748 41.5293 51.4923C43.9894 50.8228 45.8121 49.3051 47.188 46.7801L47.4547 46.2909L59.0541 47.4738C65.4338 48.1244 70.9976 48.6261 71.4182 48.5885C71.9979 48.5369 72.2683 48.4147 72.5354 48.0835C73.5157 46.8685 73.4448 44.973 72.3823 43.9946C72.0137 43.655 71.6536 43.5513 70.3603 43.4115C69.495 43.318 68.7237 43.2132 68.6464 43.1786C68.3579 43.0496 67.6275 40.8699 67.311 39.1934C67.1309 38.239 66.965 37.4334 66.9423 37.4029C66.9197 37.3725 65.2256 37.0273 63.1776 36.636C59.1726 35.8708 55.4888 35.0487 51.4545 34.02C49.0743 33.4131 48.8005 33.379 46.9214 33.457C45.4015 33.5202 44.6823 33.6338 43.9251 33.9304C42.5369 34.4741 41.031 35.572 40.0699 36.7408L39.2551 37.7319L38.4218 36.7155C37.5155 35.6099 35.7422 34.3467 34.3887 33.8421C33.5949 33.5462 29.7449 33.3163 28.989 33.5195ZM33.0544 36.5419C33.8361 36.7251 34.5921 37.0499 35.2698 37.4737C36.3239 38.133 37.5606 39.3144 37.9935 40.6337C38.1539 41.1227 40.3148 41.2709 40.5939 40.6337C40.997 39.4316 41.8826 38.3596 43.168 37.5377C44.6872 36.5661 45.4423 36.3595 47.388 36.3828C48.749 36.3991 49.568 36.5367 51.8545 37.1334C55.3967 38.0577 57.8871 38.6159 61.5873 39.3149C63.2005 39.6195 64.6635 39.9291 64.8385 40.003C65.0864 40.1074 65.236 40.4404 65.519 41.5177C65.8316 42.708 65.8519 42.8983 65.6659 42.8983C65.5474 42.8983 61.048 42.4559 55.6675 41.9153C45.8936 40.9331 45.8841 40.9326 45.3153 41.2709C44.8151 41.5682 44.6887 41.7714 44.2753 42.9424C43.355 45.5485 41.9744 46.5049 39.1255 46.5097C36.3757 46.5144 34.8392 45.503 34.053 43.1703C33.661 42.0076 33.268 41.4177 32.6886 41.1227C32.4149 40.9833 29.8477 41.1847 22.5577 41.9173C17.1872 42.4568 12.7497 42.8983 12.6963 42.8983C12.6429 42.8983 12.7097 42.5525 12.8445 42.1296C12.9793 41.7069 13.1327 41.0973 13.1854 40.7749C13.2446 40.413 13.3911 40.1338 13.5688 40.0447C13.727 39.9653 14.8464 39.7207 16.0563 39.5012C18.9844 38.9698 23.2907 38.0193 26.3224 37.2352C30.3552 36.1921 31.1937 36.1058 33.0544 36.5419Z" fill="#E2E7E9"/>
<path fill-rule="evenodd" clip-rule="evenodd" d="M25.8098 34.3486C26.8384 34.0897 27.8894 33.8153 28.989 33.5195C29.7449 33.3163 33.5949 33.5462 34.3887 33.8421C35.7422 34.3467 37.5155 35.6099 38.4218 36.7155L39.2551 37.7319L40.0699 36.7408C41.031 35.572 42.5369 34.4741 43.9251 33.9304C44.6823 33.6338 45.4015 33.5202 46.9214 33.457C48.8005 33.379 49.0743 33.4131 51.4545 34.02C51.9653 34.1502 52.4702 34.2772 52.9711 34.4011C52.8571 33.7909 52.6716 33.1944 52.4173 32.6243C51.9606 31.6004 51.2924 30.6847 50.4565 29.9375C50.2961 28.7305 49.9393 27.5579 49.4004 26.466C50.9114 23.475 52.0145 20.2948 52.6804 17.0106C53.1606 14.5187 53.4764 11.1222 52.2512 9.09459C51.9704 8.5952 51.5592 8.18142 51.0616 7.89737C50.5641 7.61332 49.9987 7.46966 49.4259 7.48171C45.4631 7.48171 43.0191 14.3288 41.62 20.4724C40.1465 20.1689 38.6266 20.1689 37.1531 20.4724C35.754 14.3288 33.31 7.48171 29.3472 7.48171C28.7748 7.46919 28.2098 7.61213 27.7123 7.89531C27.2148 8.17849 26.8034 8.59131 26.5219 9.0898C25.2951 11.1175 25.6141 14.5139 26.0927 17.0058C26.7581 20.2917 27.8613 23.4735 29.3727 26.466C28.8333 27.5594 28.4765 28.7336 28.3166 29.9423C27.5174 30.6577 26.8708 31.5269 26.4153 32.498C26.138 33.0893 25.935 33.7109 25.8098 34.3486ZM36.2461 32.936C36.4214 32.6736 36.515 32.3652 36.515 32.0497C36.515 31.6266 36.3469 31.2208 36.0477 30.9216C35.7485 30.6224 35.3427 30.4543 34.9196 30.4543C34.6041 30.4543 34.2957 30.5479 34.0333 30.7232C33.771 30.8985 33.5665 31.1477 33.4458 31.4392C33.325 31.7307 33.2934 32.0514 33.355 32.3609C33.4165 32.6704 33.5685 32.9546 33.7916 33.1777C34.0147 33.4008 34.2989 33.5528 34.6084 33.6143C34.9179 33.6759 35.2386 33.6443 35.5301 33.5236C35.8217 33.4028 36.0708 33.1983 36.2461 32.936ZM42.9671 30.7232C43.2295 30.5479 43.5379 30.4543 43.8534 30.4543C44.2766 30.4543 44.6823 30.6224 44.9815 30.9216C45.2807 31.2208 45.4488 31.6266 45.4488 32.0497C45.4488 32.3652 45.3552 32.6736 45.1799 32.936C45.0046 33.1983 44.7555 33.4028 44.4639 33.5236C44.1724 33.6443 43.8517 33.6759 43.5422 33.6143C43.2327 33.5528 42.9485 33.4008 42.7254 33.1777C42.5023 32.9546 42.3503 32.6704 42.2888 32.3609C42.2272 32.0514 42.2588 31.7307 42.3796 31.4392C42.5003 31.1477 42.7048 30.8985 42.9671 30.7232Z" fill="#E2E7E9"/>
<path d="M6.16326 20.7957C6.0566 20.6447 5.99955 20.4642 6.00001 20.2793C6.00047 20.0945 6.05842 19.9143 6.16583 19.7638C6.27727 19.6112 6.43158 19.4955 6.60988 19.4321L7.78686 19.049C8.08187 18.9507 8.34997 18.7851 8.57001 18.5654C8.79004 18.3457 8.95597 18.0779 9.0547 17.783L9.44046 16.5908C9.50428 16.4146 9.62182 16.2628 9.7765 16.1568C9.93118 16.0509 10.1152 15.9961 10.3027 16.0003C10.4901 16.0045 10.6715 16.0673 10.8213 16.18C10.9712 16.2927 11.0818 16.4496 11.1378 16.6285L11.5218 17.807C11.62 18.1022 11.7855 18.3704 12.0053 18.5906C12.225 18.8107 12.493 18.9767 12.7879 19.0755L13.9778 19.4629C14.1531 19.5253 14.3046 19.6408 14.4112 19.7933C14.5178 19.9457 14.5742 20.1276 14.5726 20.3137C14.571 20.4997 14.5114 20.6806 14.4022 20.8312C14.293 20.9818 14.1395 21.0946 13.9632 21.154L12.7631 21.5457C12.476 21.644 12.215 21.8062 11.9997 22.02C11.7844 22.2337 11.6204 22.4936 11.5201 22.7799L11.1369 23.9713C11.0744 24.1465 10.9589 24.2978 10.8064 24.4044C10.6539 24.511 10.472 24.5674 10.286 24.5659C10.0999 24.5644 9.91896 24.505 9.76822 24.396C9.61748 24.287 9.50442 24.1337 9.44474 23.9576L9.06327 22.7799C8.96483 22.4833 8.79813 22.2139 8.57658 21.9934C8.35504 21.773 8.08484 21.6076 7.78771 21.5105L6.59531 21.1231C6.42043 21.0614 6.26956 20.9466 6.16326 20.7957Z" fill="#E2E7E9"/>
<path d="M70.0075 33.5994C70.023 33.7023 70.0623 33.8003 70.1222 33.8855C70.2021 33.998 70.315 34.083 70.4454 34.1286L71.0902 34.3393C71.2227 34.3818 71.3426 34.4551 71.4417 34.5542C71.54 34.6524 71.6142 34.7724 71.6592 34.9056L71.8649 35.541C71.9085 35.6739 71.9927 35.7898 72.1058 35.8721C72.2188 35.9545 72.3549 35.9993 72.4948 36C72.6348 36.0007 72.7713 35.9574 72.8853 35.8762C72.9992 35.7951 73.0846 35.6801 73.1295 35.5476L73.3395 34.9039C73.3847 34.7743 73.4593 34.6569 73.5574 34.5608C73.6556 34.4648 73.7746 34.3927 73.9051 34.3501L74.5399 34.1445C74.673 34.1011 74.789 34.0171 74.8716 33.9042C74.9541 33.7913 74.9991 33.6553 75 33.5154C75.0009 33.3756 74.9578 33.239 74.8767 33.125C74.7956 33.011 74.6807 32.9254 74.5483 32.8803L73.9043 32.6705C73.7729 32.626 73.6535 32.5518 73.5555 32.4536C73.4575 32.3553 73.3836 32.2358 73.3395 32.1042L73.1312 31.468C73.0894 31.334 73.0064 31.2166 72.894 31.1326C72.7815 31.0486 72.6454 31.0022 72.505 31.0001C72.3646 30.998 72.2272 31.0402 72.1122 31.1208C71.9973 31.2014 71.9108 31.3162 71.8649 31.4488L71.655 32.0917C71.6117 32.2233 71.5384 32.3432 71.4384 32.4415C71.3397 32.5392 71.2201 32.6133 71.0885 32.658L70.4537 32.8645C70.3552 32.8983 70.2658 32.9545 70.1928 33.0287C70.1197 33.103 70.065 33.1932 70.0328 33.2922C70.0006 33.3912 69.992 33.4964 70.0075 33.5994Z" fill="#E2E7E9"/>
</svg>
