<svg width="230" height="58" viewBox="0 0 230 58" fill="none" xmlns="http://www.w3.org/2000/svg">
<path d="M79.3677 20.925C79.4572 20.9071 79.5735 20.8981 79.7167 20.8981C80.2535 20.8981 80.6741 21.0592 80.9783 21.3813C81.2825 21.6856 81.4346 22.1061 81.4346 22.643C81.4346 23.5735 80.9515 24.1373 79.9851 24.3341C79.1798 24.4952 77.6766 24.5757 75.4754 24.5757H74.6164C73.6321 24.5757 72.6926 24.5489 71.7978 24.4952C70.9209 24.4415 69.8383 24.3341 68.5498 24.173C67.7624 24.0657 67.3687 23.5288 67.3687 22.5624C67.3687 22.0971 67.4581 21.7124 67.6371 21.4082C67.816 21.086 68.0934 20.9071 68.4692 20.8713H68.7377C68.9524 19.4217 69.0419 18.0259 69.0061 16.6837H68.8182C68.3887 16.6837 68.0666 16.5405 67.8518 16.2542C67.655 15.95 67.5566 15.5026 67.5566 14.912C67.5566 14.411 67.655 13.9994 67.8518 13.6772C68.0666 13.3551 68.3798 13.1941 68.7914 13.1941H69.0061C69.024 12.5319 69.0329 11.2703 69.0329 9.40912C68.4245 9.15859 68.1203 8.64856 68.1203 7.87904C68.1203 7.30638 68.2724 6.89478 68.5766 6.64424C68.8808 6.37581 69.3551 6.2058 69.9993 6.13422C70.8762 6.04474 72.4689 6 74.7775 6C77.0144 6 78.7235 6.07158 79.9046 6.21475C80.4414 6.26843 80.853 6.4295 81.1394 6.69793C81.4436 6.94847 81.5957 7.34218 81.5957 7.87904C81.5957 8.41592 81.4615 8.85436 81.1931 9.19438C80.9246 9.5165 80.5578 9.65966 80.0925 9.62387C78.4461 9.48071 76.9965 9.40912 75.7438 9.40912C75.1712 9.40912 74.4374 9.42702 73.5427 9.46281L72.8447 9.48965L72.9253 13.2477H73.5427C74.4374 13.2477 75.5291 13.2656 76.8176 13.3014L78.5355 13.3551C79.2335 13.3551 79.5824 13.9188 79.5824 15.0463C79.5824 15.5831 79.4751 16.0037 79.2603 16.3079C79.0635 16.6121 78.7771 16.7642 78.4013 16.7642C77.8645 16.7642 77.4081 16.7553 77.0323 16.7374L73.5427 16.7106H72.9521C72.9163 18.3212 72.8089 19.7707 72.63 21.0592C73.31 21.1308 74.1601 21.1666 75.1801 21.1666C76.6655 21.1666 78.0613 21.086 79.3677 20.925Z" fill="#E2E7E9"/>
<path d="M106.02 24.8441C104.695 24.8441 103.505 24.5668 102.45 24.012C101.412 23.4572 100.597 22.6788 100.007 21.6766C99.4341 20.6744 99.1478 19.5202 99.1478 18.2138C99.1478 16.8716 99.452 15.6547 100.06 14.5631C100.669 13.4535 101.51 12.5856 102.584 11.9593C103.675 11.315 104.901 10.9929 106.261 10.9929C107.711 10.9929 108.999 11.3419 110.127 12.0398C111.272 12.7377 112.06 13.6414 112.489 14.751C112.632 15.091 112.704 15.3863 112.704 15.6368C112.704 16.2274 112.292 16.6211 111.469 16.8179C111.236 16.8716 111.022 16.8985 110.825 16.8985C110.467 16.8985 110.172 16.809 109.939 16.63C109.724 16.4332 109.483 16.12 109.214 15.6905C108.874 15.1715 108.489 14.7599 108.06 14.4557C107.63 14.1336 107.102 13.9725 106.476 13.9725C105.474 13.9725 104.651 14.3841 104.006 15.2073C103.362 16.0126 103.04 17.0327 103.04 18.2675C103.04 19.3949 103.326 20.2807 103.899 20.925C104.49 21.5513 105.34 21.8645 106.449 21.8645C107.505 21.8645 108.284 21.5961 108.785 21.0592C109.304 20.5044 109.563 19.8602 109.563 19.1265C109.563 18.8401 109.706 18.5807 109.993 18.348C110.297 18.0975 110.699 17.9722 111.201 17.9722C111.809 17.9722 112.265 18.0885 112.57 18.3212C112.892 18.5538 113.053 18.9654 113.053 19.556C113.053 20.4507 112.82 21.3008 112.355 22.1061C111.89 22.9114 111.129 23.5735 110.073 24.0925C109.035 24.5936 107.684 24.8441 106.02 24.8441Z" fill="#E2E7E9"/>
<path d="M128.452 21.8377C128.792 21.8914 129.051 22.0166 129.23 22.2135C129.427 22.4103 129.525 22.7593 129.525 23.2604C129.525 23.6899 129.409 24.0567 129.176 24.361C128.962 24.6652 128.666 24.8173 128.291 24.8173C127.521 24.8173 126.931 24.7278 126.519 24.5489C126.107 24.352 125.732 24.003 125.392 23.502C124.998 24.0925 124.461 24.5131 123.781 24.7636C123.101 24.9962 122.305 25.1126 121.392 25.1126C119.37 25.1126 117.831 24.531 116.775 23.3677C115.719 22.2045 115.191 20.585 115.191 18.5091C115.191 17.149 115.468 15.941 116.023 14.8852C116.578 13.8294 117.347 13.0062 118.332 12.4156C119.334 11.825 120.479 11.5298 121.768 11.5298C122.412 11.5298 123.011 11.655 123.566 11.9056C124.121 12.1561 124.541 12.4872 124.828 12.8988L124.881 12.5498C124.917 12.2993 125.06 12.0935 125.311 11.9324C125.562 11.7535 125.955 11.664 126.492 11.664C127.065 11.664 127.485 11.7803 127.754 12.0129C128.022 12.2456 128.156 12.5409 128.156 12.8988C128.156 13.024 128.147 13.1225 128.13 13.1941C128.022 13.8025 127.915 14.8226 127.807 16.2542C127.754 16.9164 127.727 17.7664 127.727 18.8043V20.1465C127.727 20.6655 127.772 21.0682 127.861 21.3545C127.951 21.6229 128.147 21.784 128.452 21.8377ZM123.969 19.9855C123.987 19.2517 123.996 18.1154 123.996 16.5763C123.996 15.9679 123.79 15.4758 123.378 15.0999C122.985 14.7062 122.475 14.5094 121.848 14.5094C121.043 14.5094 120.381 14.8852 119.862 15.6368C119.343 16.3705 119.083 17.319 119.083 18.4822C119.083 19.5918 119.316 20.4776 119.781 21.1397C120.246 21.8019 120.873 22.1329 121.66 22.1329C122.394 22.1329 122.958 21.954 123.351 21.5961C123.745 21.2203 123.951 20.6834 123.969 19.9855Z" fill="#E2E7E9"/>
<path d="M139.706 11.1003C141.281 11.1003 142.498 11.655 143.357 12.7646C144.234 13.8562 144.672 15.4758 144.672 17.6232L144.645 23.6899C144.645 24.0657 144.457 24.352 144.082 24.5489C143.724 24.7457 143.276 24.8441 142.739 24.8441C142.22 24.8441 141.755 24.7547 141.343 24.5757C140.95 24.3967 140.753 24.1462 140.753 23.8241L140.78 17.5964C140.78 16.29 140.637 15.3773 140.35 14.8584C140.064 14.3394 139.617 14.0799 139.008 14.0799C138.489 14.0799 138.078 14.3125 137.773 14.7778C137.469 15.2431 137.21 16.1468 136.995 17.489C136.87 18.2406 136.807 19.0728 136.807 19.9855L136.834 23.4483C136.834 23.9136 136.655 24.2715 136.297 24.522C135.957 24.7547 135.492 24.871 134.901 24.871C134.293 24.871 133.809 24.7457 133.451 24.4952C133.111 24.2446 132.941 23.8957 132.941 23.4483C132.941 19.726 132.888 16.8269 132.78 14.751C132.762 14.5362 132.709 14.3394 132.619 14.1604C132.548 13.9636 132.458 13.7846 132.351 13.6236C132.244 13.4625 132.163 13.3372 132.109 13.2477C132.002 13.0509 131.948 12.854 131.948 12.6572C131.948 12.2814 132.163 11.9324 132.592 11.6103C133.04 11.2703 133.469 11.1003 133.881 11.1003C134.078 11.1003 134.266 11.1629 134.445 11.2882C134.642 11.4134 134.856 11.6192 135.089 11.9056C135.286 12.1561 135.429 12.3798 135.518 12.5767C135.608 12.7735 135.653 12.9972 135.653 13.2477V13.4893C135.975 12.8093 136.458 12.2456 137.102 11.7982C137.764 11.3329 138.632 11.1003 139.706 11.1003Z" fill="#E2E7E9"/>
<path d="M155.442 19.4754C156.033 19.4754 156.462 19.5918 156.731 19.8244C156.999 20.057 157.133 20.4329 157.133 20.9518C157.133 22.1329 156.758 23.0814 156.006 23.7972C155.254 24.5131 154.306 24.871 153.16 24.871C151.604 24.871 150.467 24.2446 149.751 22.9919C149.036 21.7213 148.678 19.717 148.678 16.979C148.678 16.1558 148.687 15.5563 148.704 15.1805C148.579 15.1626 148.373 15.1536 148.087 15.1536C147.067 15.1357 146.557 14.6436 146.557 13.6772C146.557 13.1762 146.682 12.8004 146.933 12.5498C147.201 12.2993 147.667 12.183 148.329 12.2008L148.919 12.2277C149.044 11.1182 149.25 9.75809 149.537 8.14748C149.608 7.71798 149.805 7.39586 150.127 7.18111C150.467 6.94847 150.897 6.83215 151.416 6.83215C152.024 6.83215 152.498 6.97531 152.838 7.26164C153.178 7.54798 153.348 7.89694 153.348 8.30854L153.322 8.52329L153.187 9.38228C152.973 10.8497 152.829 11.8519 152.758 12.3888C153.366 12.4245 153.832 12.4424 154.154 12.4424C155.066 12.4603 155.523 12.9346 155.523 13.8651C155.523 14.3304 155.397 14.6794 155.147 14.912C154.896 15.1447 154.476 15.261 153.885 15.261H152.543C152.525 15.6189 152.516 16.1916 152.516 16.979C152.516 18.3033 152.543 19.3233 152.597 20.0391C152.668 20.7371 152.767 21.2113 152.892 21.4619C153.017 21.7124 153.178 21.8377 153.375 21.8377C153.626 21.8377 153.787 21.7571 153.858 21.5961C153.93 21.435 153.966 21.1487 153.966 20.7371C153.966 19.896 154.458 19.4754 155.442 19.4754Z" fill="#E2E7E9"/>
<path d="M166.162 24.8978C163.889 24.8978 162.082 24.3073 160.739 23.1262C159.415 21.9271 158.753 20.2539 158.753 18.1064C158.753 16.7106 159.048 15.4668 159.639 14.3752C160.229 13.2835 161.061 12.4335 162.135 11.825C163.227 11.2166 164.506 10.9124 165.974 10.9124C167.459 10.9124 168.766 11.2255 169.893 11.8519C171.02 12.4782 171.888 13.3551 172.497 14.4825C173.123 15.5921 173.436 16.8627 173.436 18.2943C173.436 20.3881 172.783 22.0166 171.477 23.1798C170.17 24.3252 168.399 24.8978 166.162 24.8978ZM166.108 21.9182C167.2 21.9182 168.041 21.614 168.631 21.0055C169.24 20.3792 169.544 19.4575 169.544 18.2406C169.544 17.0416 169.249 16.0216 168.658 15.1805C168.086 14.3215 167.235 13.892 166.108 13.892C165.052 13.892 164.211 14.2767 163.585 15.0463C162.958 15.8158 162.645 16.8448 162.645 18.1333C162.645 19.386 162.949 20.3344 163.558 20.9787C164.166 21.605 165.016 21.9182 166.108 21.9182Z" fill="#E2E7E9"/>
<path d="M180.991 25.0589C179.756 25.0589 178.655 24.7726 177.689 24.1999C176.723 23.6093 176.034 22.8309 175.622 21.8645C175.515 21.5961 175.461 21.3724 175.461 21.1934C175.461 20.8176 175.658 20.4597 176.051 20.1197C176.445 19.7797 176.875 19.6097 177.34 19.6097C177.608 19.6097 177.823 19.6723 177.984 19.7976C178.145 19.9049 178.271 20.0123 178.36 20.1197C178.449 20.2092 178.503 20.2718 178.521 20.3076C179.04 20.916 179.47 21.3455 179.81 21.5961C180.15 21.8466 180.561 21.9719 181.044 21.9719C181.492 21.9719 181.877 21.8824 182.199 21.7034C182.521 21.5066 182.682 21.2382 182.682 20.8981C182.682 20.5223 182.494 20.2271 182.118 20.0123C181.742 19.7976 181.134 19.556 180.293 19.2875C179.362 18.9654 178.602 18.6612 178.011 18.3749C177.438 18.0885 176.928 17.668 176.481 17.1132C176.051 16.5405 175.837 15.8158 175.837 14.9389C175.837 14.062 176.087 13.3104 176.588 12.684C177.089 12.0398 177.752 11.5477 178.575 11.2076C179.416 10.8676 180.32 10.6976 181.286 10.6976C182.324 10.6976 183.219 10.8945 183.97 11.2882C184.74 11.664 185.321 12.174 185.715 12.8182C186.109 13.4446 186.306 14.1157 186.306 14.8315C186.306 15.3147 186.171 15.6816 185.903 15.9321C185.635 16.1826 185.187 16.3079 184.561 16.3079C184.006 16.3079 183.621 16.2184 183.407 16.0395C183.21 15.8605 183.084 15.61 183.031 15.2879C182.977 14.8405 182.834 14.4825 182.601 14.2141C182.387 13.9457 181.948 13.8115 181.286 13.8115C180.785 13.8115 180.391 13.9009 180.105 14.0799C179.836 14.2588 179.702 14.5094 179.702 14.8315C179.702 15.2252 179.89 15.5294 180.266 15.7442C180.66 15.9589 181.286 16.1916 182.145 16.4421C183.058 16.7285 183.809 17.0148 184.4 17.3011C184.99 17.5695 185.5 17.9811 185.93 18.5359C186.359 19.0728 186.574 19.7886 186.574 20.6834C186.574 21.7034 186.288 22.5445 185.715 23.2067C185.142 23.8688 184.427 24.3431 183.568 24.6294C182.709 24.9157 181.85 25.0589 180.991 25.0589Z" fill="#E2E7E9"/>
<path d="M109.99 47.0258C109.417 47.0258 108.943 46.8826 108.567 46.5963C108.191 46.31 108.012 45.9252 108.03 45.442L108.245 35.5368C108.263 35.0536 108.451 34.6778 108.809 34.4094C109.167 34.123 109.632 33.9799 110.205 33.9799C110.795 33.9799 111.278 34.123 111.654 34.4094C112.03 34.6957 112.209 35.0894 112.191 35.5905L111.976 45.4689C111.958 45.9521 111.762 46.3368 111.386 46.6232C111.028 46.8916 110.563 47.0258 109.99 47.0258Z" fill="#E2E7E9"/>
<path d="M124.321 41.845C124.912 41.845 125.341 41.9613 125.61 42.194C125.878 42.4266 126.013 42.8024 126.013 43.3214C126.013 44.5025 125.637 45.451 124.885 46.1668C124.133 46.8826 123.185 47.2406 122.04 47.2406C120.483 47.2406 119.346 46.6142 118.631 45.3615C117.915 44.0909 117.557 42.0866 117.557 39.3486C117.557 38.5254 117.566 37.9259 117.584 37.5501C117.458 37.5322 117.253 37.5232 116.966 37.5232C115.946 37.5053 115.436 37.0132 115.436 36.0468C115.436 35.5457 115.561 35.1699 115.812 34.9194C116.08 34.6689 116.546 34.5525 117.208 34.5704L117.798 34.5973C117.924 33.4877 118.129 32.1277 118.416 30.5171C118.487 30.0876 118.684 29.7654 119.006 29.5507C119.346 29.3181 119.776 29.2017 120.295 29.2017C120.903 29.2017 121.378 29.3449 121.718 29.6312C122.058 29.9176 122.228 30.2665 122.228 30.6781L122.201 30.8929L122.067 31.7519C121.852 33.2193 121.709 34.2215 121.637 34.7583C122.245 34.7941 122.711 34.812 123.033 34.812C123.946 34.8299 124.402 35.3041 124.402 36.2347C124.402 36.7 124.277 37.049 124.026 37.2816C123.776 37.5143 123.355 37.6306 122.764 37.6306H121.422C121.404 37.9885 121.395 38.5612 121.395 39.3486C121.395 40.6729 121.422 41.6929 121.476 42.4087C121.548 43.1067 121.646 43.5809 121.771 43.8314C121.897 44.082 122.058 44.2072 122.254 44.2072C122.505 44.2072 122.666 44.1267 122.738 43.9657C122.809 43.8046 122.845 43.5183 122.845 43.1067C122.845 42.2656 123.337 41.845 124.321 41.845Z" fill="#E2E7E9"/>
<path d="M135.363 47.4553C133.735 47.4553 132.357 47.1511 131.229 46.5426C130.12 45.9342 129.287 45.0931 128.733 44.0193C128.178 42.9456 127.901 41.7287 127.901 40.3686C127.901 39.0086 128.214 37.8006 128.84 36.7448C129.484 35.671 130.352 34.8389 131.444 34.2483C132.553 33.6577 133.788 33.3625 135.148 33.3625C136.365 33.3625 137.475 33.6041 138.477 34.0872C139.497 34.5704 140.293 35.2684 140.866 36.181C141.457 37.0758 141.752 38.1317 141.752 39.3486C141.752 40.1181 141.609 40.6728 141.322 41.0129C141.054 41.335 140.589 41.4961 139.926 41.4961H131.256C131.256 41.9255 131.408 42.364 131.712 42.8114C132.017 43.2409 132.473 43.6077 133.081 43.912C133.69 44.2162 134.415 44.3683 135.256 44.3683C136.007 44.3683 136.598 44.2609 137.027 44.0462C137.457 43.8135 137.904 43.4735 138.37 43.0261C138.71 42.7219 139.059 42.5698 139.416 42.5698C139.828 42.5698 140.213 42.7309 140.571 43.053C140.929 43.3572 141.108 43.7062 141.108 44.0999C141.108 44.422 141 44.7352 140.785 45.0394C140.41 45.6299 139.774 46.1847 138.88 46.7037C137.985 47.2048 136.813 47.4553 135.363 47.4553ZM138.208 39.0801C138.37 39.0801 138.468 39.0533 138.504 38.9996C138.557 38.9459 138.584 38.8475 138.584 38.7043C138.584 38.0064 138.244 37.4248 137.564 36.9595C136.902 36.4942 136.079 36.2616 135.095 36.2616C134.307 36.2616 133.618 36.4137 133.028 36.7179C132.455 37.0221 132.017 37.3979 131.712 37.8453C131.408 38.2748 131.256 38.6864 131.256 39.0801H138.208Z" fill="#E2E7E9"/>
<path d="M151.864 33.2551C152.58 33.2551 153.242 33.4251 153.85 33.7651C154.459 34.0872 154.942 34.5525 155.3 35.161C155.658 35.7694 155.837 36.4763 155.837 37.2816C155.837 38.4448 155.452 39.3486 154.682 39.9928C153.931 40.6192 152.955 40.9323 151.756 40.9323C151.13 40.9323 150.692 40.8429 150.441 40.6639C150.191 40.467 150.065 40.1449 150.065 39.6975C150.065 39.268 150.155 38.9728 150.334 38.8117C150.513 38.6327 150.763 38.5254 151.085 38.4896C152.141 38.3822 152.669 37.9438 152.669 37.1742C152.669 36.8521 152.589 36.6105 152.428 36.4495C152.284 36.2705 152.079 36.181 151.81 36.181C151.327 36.181 150.88 36.4584 150.468 37.0132C150.056 37.5501 149.716 38.1854 149.448 38.9191C149.179 39.6349 149.009 40.2434 148.938 40.7444C148.813 41.5318 148.75 42.9277 148.75 44.932C148.75 45.8984 148.607 46.5605 148.321 46.9184C148.052 47.2585 147.569 47.4285 146.871 47.4285C146.227 47.4285 145.735 47.3032 145.395 47.0527C145.072 46.8021 144.902 46.4174 144.885 45.8984V41.5497C144.885 40.4044 144.858 39.4381 144.804 38.6506C144.75 37.8453 144.661 36.8163 144.536 35.5636L144.428 34.4631C144.392 34.0157 144.536 33.6488 144.858 33.3625C145.198 33.0761 145.663 32.933 146.254 32.933C147.256 32.933 147.793 33.3804 147.864 34.2752C147.9 34.7046 147.936 35.3131 147.972 36.1005C148.329 35.2594 148.831 34.5794 149.475 34.0604C150.137 33.5235 150.933 33.2551 151.864 33.2551Z" fill="#E2E7E9"/>
<path d="M171.15 44.2072C171.491 44.2609 171.75 44.3862 171.929 44.5831C172.126 44.7799 172.224 45.1289 172.224 45.6299C172.224 46.0594 172.108 46.4263 171.875 46.7305C171.661 47.0348 171.365 47.1869 170.989 47.1869C170.22 47.1869 169.629 47.0974 169.218 46.9184C168.806 46.7216 168.43 46.3726 168.09 45.8715C167.697 46.4621 167.16 46.8826 166.48 47.1332C165.8 47.3658 165.003 47.4822 164.091 47.4822C162.068 47.4822 160.529 46.9005 159.474 45.7373C158.418 44.5741 157.89 42.9545 157.89 40.8787C157.89 39.5186 158.167 38.3106 158.722 37.2548C159.277 36.1989 160.046 35.3757 161.03 34.7852C162.033 34.1946 163.178 33.8993 164.466 33.8993C165.111 33.8993 165.71 34.0246 166.265 34.2752C166.82 34.5257 167.24 34.8568 167.527 35.2684L167.58 34.9194C167.616 34.6689 167.759 34.4631 168.01 34.302C168.26 34.123 168.654 34.0336 169.191 34.0336C169.764 34.0336 170.184 34.1499 170.453 34.3825C170.721 34.6152 170.855 34.9104 170.855 35.2684C170.855 35.3936 170.846 35.4921 170.828 35.5636C170.721 36.1721 170.614 37.1921 170.506 38.6238C170.453 39.2859 170.426 40.136 170.426 41.1739V42.5161C170.426 43.0351 170.47 43.4377 170.56 43.7241C170.649 43.9925 170.846 44.1536 171.15 44.2072ZM166.668 42.355C166.686 41.6213 166.694 40.4849 166.694 38.9459C166.694 38.3375 166.489 37.8453 166.077 37.4695C165.683 37.0758 165.173 36.879 164.547 36.879C163.742 36.879 163.08 37.2548 162.561 38.0064C162.042 38.7401 161.782 39.6886 161.782 40.8518C161.782 41.9613 162.015 42.8472 162.48 43.5093C162.945 44.1715 163.572 44.5025 164.359 44.5025C165.093 44.5025 165.657 44.3236 166.05 43.9657C166.444 43.5898 166.65 43.053 166.668 42.355ZM163.366 32.4229C162.99 32.4229 162.677 32.2977 162.426 32.0471C162.176 31.7787 162.051 31.4566 162.051 31.0808C162.051 30.866 162.095 30.6423 162.185 30.4097C162.274 30.177 162.399 29.9891 162.561 29.846L165.057 27.5643C165.397 27.2422 165.665 27.0185 165.862 26.8932C166.077 26.7679 166.31 26.7053 166.56 26.7053C166.954 26.7053 167.285 26.8395 167.553 27.1079C167.822 27.3764 167.956 27.7164 167.956 28.128C167.956 28.3964 167.893 28.647 167.768 28.8796C167.661 29.1122 167.518 29.3091 167.339 29.4702L164.654 31.7787C164.404 32.0113 164.18 32.1814 163.983 32.2887C163.786 32.3782 163.581 32.4229 163.366 32.4229Z" fill="#E2E7E9"/>
<path d="M182.351 33.2551C183.067 33.2551 183.729 33.4251 184.338 33.7651C184.946 34.0872 185.429 34.5525 185.787 35.161C186.145 35.7694 186.324 36.4763 186.324 37.2816C186.324 38.4448 185.939 39.3486 185.17 39.9928C184.418 40.6192 183.443 40.9323 182.244 40.9323C181.617 40.9323 181.179 40.8429 180.928 40.6639C180.678 40.467 180.553 40.1449 180.553 39.6975C180.553 39.268 180.642 38.9728 180.821 38.8117C181 38.6327 181.251 38.5254 181.573 38.4896C182.629 38.3822 183.156 37.9438 183.156 37.1742C183.156 36.8521 183.076 36.6105 182.915 36.4495C182.772 36.2705 182.566 36.181 182.297 36.181C181.814 36.181 181.367 36.4584 180.955 37.0132C180.544 37.5501 180.204 38.1854 179.935 38.9191C179.667 39.6349 179.497 40.2434 179.425 40.7444C179.3 41.5318 179.237 42.9277 179.237 44.932C179.237 45.8984 179.094 46.5605 178.808 46.9184C178.539 47.2585 178.056 47.4285 177.358 47.4285C176.714 47.4285 176.222 47.3032 175.882 47.0527C175.56 46.8021 175.39 46.4174 175.372 45.8984V41.5497C175.372 40.4044 175.345 39.4381 175.291 38.6506C175.238 37.8453 175.148 36.8163 175.023 35.5636L174.915 34.4631C174.88 34.0157 175.023 33.6488 175.345 33.3625C175.685 33.0761 176.15 32.933 176.741 32.933C177.743 32.933 178.28 33.3804 178.351 34.2752C178.387 34.7046 178.423 35.3131 178.459 36.1005C178.817 35.2594 179.318 34.5794 179.962 34.0604C180.624 33.5235 181.421 33.2551 182.351 33.2551Z" fill="#E2E7E9"/>
<path d="M191.464 47.0258C190.891 47.0258 190.417 46.8826 190.041 46.5963C189.666 46.31 189.487 45.9252 189.505 45.442L189.719 35.5368C189.737 35.0536 189.925 34.6778 190.283 34.4094C190.641 34.123 191.106 33.9799 191.679 33.9799C192.269 33.9799 192.753 34.123 193.128 34.4094C193.504 34.6957 193.683 35.0894 193.665 35.5905L193.451 45.4689C193.433 45.9521 193.236 46.3368 192.86 46.6232C192.502 46.8916 192.037 47.0258 191.464 47.0258Z" fill="#E2E7E9"/>
<path d="M204.588 47.2674C202.315 47.2674 200.507 46.6768 199.165 45.4957C197.841 44.2967 197.179 42.6235 197.179 40.476C197.179 39.0801 197.474 37.8364 198.065 36.7448C198.655 35.6531 199.487 34.8031 200.561 34.1946C201.653 33.5862 202.932 33.2819 204.4 33.2819C205.885 33.2819 207.191 33.5951 208.319 34.2215C209.446 34.8478 210.314 35.7247 210.923 36.8521C211.549 37.9617 211.862 39.2323 211.862 40.6639C211.862 42.7577 211.209 44.3862 209.903 45.5494C208.596 46.6947 206.825 47.2674 204.588 47.2674ZM204.534 44.2878C205.626 44.2878 206.467 43.9835 207.057 43.3751C207.666 42.7487 207.97 41.8271 207.97 40.6102C207.97 39.4112 207.675 38.3912 207.084 37.5501C206.511 36.6911 205.661 36.2616 204.534 36.2616C203.478 36.2616 202.637 36.6463 202.011 37.4158C201.384 38.1854 201.071 39.2144 201.071 40.5028C201.071 41.7555 201.375 42.704 201.984 43.3483C202.592 43.9746 203.442 44.2878 204.534 44.2878Z" fill="#E2E7E9"/>
<path d="M219.417 47.4285C218.182 47.4285 217.081 47.1421 216.115 46.5695C215.148 45.9789 214.459 45.2005 214.048 44.2341C213.94 43.9657 213.887 43.742 213.887 43.563C213.887 43.1872 214.084 42.8293 214.477 42.4893C214.871 42.1492 215.301 41.9792 215.766 41.9792C216.034 41.9792 216.249 42.0419 216.41 42.1671C216.571 42.2745 216.696 42.3819 216.786 42.4893C216.875 42.5787 216.929 42.6414 216.947 42.6772C217.466 43.2856 217.895 43.7151 218.235 43.9657C218.575 44.2162 218.987 44.3415 219.47 44.3415C219.918 44.3415 220.302 44.252 220.625 44.073C220.947 43.8762 221.108 43.6077 221.108 43.2677C221.108 42.8919 220.92 42.5966 220.544 42.3819C220.168 42.1671 219.56 41.9255 218.719 41.6571C217.788 41.335 217.027 41.0308 216.437 40.7444C215.864 40.4581 215.354 40.0376 214.907 39.4828C214.477 38.9101 214.263 38.1854 214.263 37.3085C214.263 36.4316 214.513 35.68 215.014 35.0536C215.515 34.4094 216.177 33.9172 217.001 33.5772C217.842 33.2372 218.745 33.0672 219.712 33.0672C220.75 33.0672 221.645 33.264 222.396 33.6577C223.166 34.0336 223.747 34.5436 224.141 35.1878C224.535 35.8142 224.732 36.4853 224.732 37.2011C224.732 37.6843 224.597 38.0511 224.329 38.3017C224.061 38.5522 223.613 38.6775 222.987 38.6775C222.432 38.6775 222.047 38.588 221.832 38.409C221.636 38.2301 221.51 37.9796 221.457 37.6574C221.403 37.21 221.26 36.8521 221.027 36.5837C220.812 36.3153 220.374 36.181 219.712 36.181C219.211 36.181 218.817 36.2705 218.531 36.4495C218.262 36.6284 218.128 36.879 218.128 37.2011C218.128 37.5948 218.316 37.899 218.692 38.1138C219.085 38.3285 219.712 38.5612 220.571 38.8117C221.484 39.098 222.235 39.3844 222.826 39.6707C223.416 39.9391 223.926 40.3507 224.356 40.9055C224.785 41.4424 225 42.1582 225 43.053C225 44.073 224.714 44.9141 224.141 45.5763C223.568 46.2384 222.853 46.7126 221.994 46.999C221.135 47.2853 220.276 47.4285 219.417 47.4285Z" fill="#E2E7E9"/>
<path d="M91.76 11.1003C93.3348 11.1003 94.5517 11.655 95.4107 12.7646C96.2876 13.8562 96.726 15.4758 96.726 17.6232C96.726 17.6232 96.497 23.7124 96.4357 24.8173C96.3743 25.9221 95.7339 36.0021 95.7339 36.0021C95.6265 37.9594 95.6265 39.1786 95.6265 40.8787C95.6265 41.7555 95.6623 42.3998 95.7339 42.8114C95.8234 43.223 95.9844 43.5093 96.2171 43.6704C96.4676 43.8314 96.8524 43.912 97.3713 43.912C98.4809 43.912 100.396 43.6614 103.116 43.1603C103.205 43.1425 103.331 43.1335 103.492 43.1335C103.957 43.1335 104.324 43.3125 104.592 43.6704C104.879 44.0104 105.022 44.413 105.022 44.8783C105.022 45.8268 104.333 46.4263 102.955 46.6768C101.72 46.9095 100.78 47.0705 100.136 47.16C99.5099 47.2316 98.7135 47.2674 97.7471 47.2674C95.9934 47.2674 94.7049 47.0795 93.8817 46.7037C93.0764 46.3279 92.5395 45.7015 92.2711 44.8246C92.0026 43.9478 91.8684 42.5966 91.8684 40.7713C91.8684 38.7133 91.9579 36.8253 92.1368 35.1073C92.3337 33.3893 92.5694 27.8394 92.8248 24.2312C93.0802 20.623 92.8337 17.5964 92.8337 17.5964C92.8337 16.29 92.6905 15.3773 92.4042 14.8584C92.1179 14.3394 91.6705 14.0799 91.062 14.0799C90.5431 14.0799 90.1315 14.3125 89.8272 14.7778C89.523 15.2431 89.2635 16.1468 89.0488 17.489C88.9235 18.2406 88.8609 19.0728 88.8609 19.9855L88.8877 23.4483C88.8877 23.9136 88.7087 24.2715 88.3508 24.522C88.0108 24.7547 87.5455 24.871 86.955 24.871C86.3465 24.871 85.8633 24.7457 85.5054 24.4952C85.1654 24.2446 84.9954 23.8957 84.9954 23.4483C84.9954 19.726 84.9417 16.8269 84.8343 14.751C84.8164 14.5362 84.7627 14.3394 84.6733 14.1604C84.6017 13.9636 84.5122 13.7846 84.4048 13.6236C84.2975 13.4625 84.2169 13.3372 84.1632 13.2477C84.0559 13.0509 84.0022 12.854 84.0022 12.6572C84.0022 12.2814 84.2169 11.9324 84.6464 11.6103C85.0938 11.2703 85.5233 11.1003 85.9349 11.1003C86.1318 11.1003 86.3197 11.1629 86.4986 11.2882C86.6955 11.4134 86.9102 11.6192 87.1429 11.9056C87.3397 12.1561 87.4829 12.3798 87.5724 12.5767C87.6618 12.7735 87.7066 12.9972 87.7066 13.2477V13.4893C88.0287 12.8093 88.5119 12.2456 89.1561 11.7982C89.8183 11.3329 90.6862 11.1003 91.76 11.1003Z" fill="#E2E7E9"/>
<path d="M107.5 30.1193C107.519 30.2428 107.566 30.3604 107.638 30.4626C107.734 30.5977 107.869 30.6996 108.025 30.7544L108.799 31.0072C108.958 31.0582 109.102 31.1461 109.221 31.265C109.339 31.3829 109.428 31.5268 109.482 31.6867L109.729 32.4492C109.781 32.6087 109.882 32.7477 110.018 32.8466C110.154 32.9454 110.317 32.9991 110.485 33C110.653 33.0009 110.817 32.9489 110.953 32.8515C111.09 32.7541 111.193 32.6161 111.246 32.4572L111.498 31.6847C111.553 31.5292 111.642 31.3883 111.76 31.273C111.878 31.1577 112.02 31.0712 112.177 31.0202L112.939 30.7734C113.099 30.7214 113.238 30.6205 113.337 30.485C113.436 30.3495 113.49 30.1863 113.491 30.0185C113.492 29.8507 113.44 29.6868 113.343 29.55C113.246 29.4132 113.108 29.3105 112.949 29.2564L112.176 29.0046C112.018 28.9513 111.875 28.8622 111.758 28.7443C111.64 28.6264 111.551 28.4829 111.498 28.3251L111.248 27.5616C111.198 27.4008 111.099 27.26 110.964 27.1591C110.829 27.0583 110.666 27.0027 110.497 27.0001C110.329 26.9976 110.164 27.0483 110.026 27.145C109.888 27.2417 109.784 27.3794 109.729 27.5386L109.477 28.3101C109.425 28.468 109.337 28.6119 109.217 28.7298C109.099 28.8471 108.955 28.9359 108.797 28.9896L108.035 29.2374C107.917 29.278 107.81 29.3454 107.722 29.4345C107.635 29.5236 107.569 29.6318 107.53 29.7507C107.492 29.8695 107.481 29.9957 107.5 30.1193Z" fill="#E2E7E9"/>
<path d="M189.009 30.1192C189.028 30.2428 189.075 30.3603 189.147 30.4626C189.243 30.5977 189.378 30.6996 189.534 30.7544L190.308 31.0072C190.467 31.0581 190.611 31.1461 190.73 31.265C190.848 31.3829 190.937 31.5268 190.991 31.6867L191.238 32.4492C191.29 32.6087 191.391 32.7477 191.527 32.8466C191.663 32.9454 191.826 32.9991 191.994 33C192.162 33.0009 192.326 32.9489 192.462 32.8515C192.599 32.7541 192.702 32.6161 192.755 32.4572L193.007 31.6847C193.062 31.5292 193.151 31.3882 193.269 31.273C193.387 31.1577 193.529 31.0712 193.686 31.0202L194.448 30.7733C194.608 30.7214 194.747 30.6205 194.846 30.485C194.945 30.3495 194.999 30.1863 195 30.0185C195.001 29.8507 194.949 29.6867 194.852 29.55C194.755 29.4132 194.617 29.3105 194.458 29.2564L193.685 29.0046C193.527 28.9512 193.384 28.8622 193.267 28.7443C193.149 28.6264 193.06 28.4829 193.007 28.3251L192.757 27.5616C192.707 27.4008 192.608 27.26 192.473 27.1591C192.338 27.0583 192.174 27.0026 192.006 27.0001C191.838 26.9975 191.673 27.0482 191.535 27.1449C191.397 27.2416 191.293 27.3794 191.238 27.5386L190.986 28.3101C190.934 28.468 190.846 28.6119 190.726 28.7298C190.608 28.8471 190.464 28.9359 190.306 28.9896L189.544 29.2374C189.426 29.2779 189.319 29.3454 189.231 29.4345C189.144 29.5236 189.078 29.6318 189.039 29.7506C189.001 29.8695 188.99 29.9957 189.009 30.1192Z" fill="#E2E7E9"/>
<path fill-rule="evenodd" clip-rule="evenodd" d="M28.989 33.5195C24.0968 34.8355 20.1694 35.7275 14.8688 36.7267C13.079 37.0641 11.5948 37.3667 11.5707 37.3992C11.5464 37.4316 11.3778 38.2476 11.1956 39.2122C11.0135 40.177 10.6627 41.4616 10.4159 42.0667L9.96729 43.1671L8.16085 43.3687C6.11042 43.5975 5.65205 43.8392 5.2442 44.907C4.80236 46.0637 4.96102 47.1398 5.71271 48.0835C5.9771 48.4156 6.24375 48.5367 6.82532 48.5885C7.24596 48.6261 12.8098 48.1244 19.1895 47.4738L30.7889 46.2909L31.0555 46.7801C32.4324 49.3069 34.2535 50.8225 36.7188 51.4935C37.6568 51.7489 40.589 51.748 41.5293 51.4923C43.9894 50.8228 45.8121 49.3051 47.188 46.7801L47.4547 46.2909L59.0541 47.4738C65.4338 48.1244 70.9976 48.6261 71.4182 48.5885C71.9979 48.5369 72.2683 48.4147 72.5354 48.0835C73.5157 46.8685 73.4448 44.973 72.3823 43.9946C72.0137 43.655 71.6536 43.5513 70.3603 43.4115C69.495 43.318 68.7237 43.2132 68.6464 43.1786C68.3579 43.0496 67.6275 40.8699 67.311 39.1934C67.1309 38.239 66.965 37.4334 66.9423 37.4029C66.9197 37.3725 65.2256 37.0273 63.1776 36.636C59.1726 35.8708 55.4888 35.0487 51.4545 34.02C49.0743 33.4131 48.8005 33.379 46.9214 33.457C45.4015 33.5202 44.6823 33.6338 43.9251 33.9304C42.5369 34.4741 41.031 35.572 40.0699 36.7408L39.2551 37.7319L38.4218 36.7155C37.5155 35.6099 35.7422 34.3467 34.3887 33.8421C33.5949 33.5462 29.7449 33.3163 28.989 33.5195ZM33.0544 36.5419C33.8361 36.7251 34.5921 37.0499 35.2698 37.4737C36.3239 38.133 37.5606 39.3144 37.9935 40.6337C38.1539 41.1227 40.3148 41.2709 40.5939 40.6337C40.997 39.4316 41.8826 38.3596 43.168 37.5377C44.6872 36.5661 45.4423 36.3595 47.388 36.3828C48.749 36.3991 49.568 36.5367 51.8545 37.1334C55.3967 38.0577 57.8871 38.6159 61.5873 39.3149C63.2005 39.6195 64.6635 39.9291 64.8385 40.003C65.0864 40.1074 65.236 40.4404 65.519 41.5177C65.8316 42.708 65.8519 42.8983 65.6659 42.8983C65.5474 42.8983 61.048 42.4559 55.6675 41.9153C45.8936 40.9331 45.8841 40.9326 45.3153 41.2709C44.8151 41.5682 44.6887 41.7714 44.2753 42.9424C43.355 45.5485 41.9744 46.5049 39.1255 46.5097C36.3757 46.5144 34.8392 45.503 34.053 43.1703C33.661 42.0076 33.268 41.4177 32.6886 41.1227C32.4149 40.9833 29.8477 41.1847 22.5577 41.9173C17.1872 42.4568 12.7497 42.8983 12.6963 42.8983C12.6429 42.8983 12.7097 42.5525 12.8445 42.1296C12.9793 41.7069 13.1327 41.0973 13.1854 40.7749C13.2446 40.413 13.3911 40.1338 13.5688 40.0447C13.727 39.9653 14.8464 39.7207 16.0563 39.5012C18.9844 38.9698 23.2907 38.0193 26.3224 37.2352C30.3552 36.1921 31.1937 36.1058 33.0544 36.5419Z" fill="#E2E7E9"/>
<path fill-rule="evenodd" clip-rule="evenodd" d="M25.8098 34.3486C26.8384 34.0897 27.8894 33.8153 28.989 33.5195C29.7449 33.3163 33.5949 33.5462 34.3887 33.8421C35.7422 34.3467 37.5155 35.6099 38.4218 36.7155L39.2551 37.7319L40.0699 36.7408C41.031 35.572 42.5369 34.4741 43.9251 33.9304C44.6823 33.6338 45.4015 33.5202 46.9214 33.457C48.8005 33.379 49.0743 33.4131 51.4545 34.02C51.9653 34.1502 52.4702 34.2772 52.9711 34.4011C52.8571 33.7909 52.6716 33.1944 52.4173 32.6243C51.9606 31.6004 51.2924 30.6847 50.4565 29.9375C50.2961 28.7305 49.9393 27.5579 49.4004 26.466C50.9114 23.475 52.0145 20.2948 52.6804 17.0106C53.1606 14.5187 53.4764 11.1222 52.2512 9.09459C51.9704 8.5952 51.5592 8.18142 51.0616 7.89737C50.5641 7.61332 49.9987 7.46966 49.4259 7.48171C45.4631 7.48171 43.0191 14.3288 41.62 20.4724C40.1465 20.1689 38.6266 20.1689 37.1531 20.4724C35.754 14.3288 33.31 7.48171 29.3472 7.48171C28.7748 7.46919 28.2098 7.61213 27.7123 7.89531C27.2148 8.17849 26.8034 8.59131 26.5219 9.0898C25.2951 11.1175 25.6141 14.5139 26.0927 17.0058C26.7581 20.2917 27.8613 23.4735 29.3727 26.466C28.8333 27.5594 28.4765 28.7336 28.3166 29.9423C27.5174 30.6577 26.8708 31.5269 26.4153 32.498C26.138 33.0893 25.935 33.7109 25.8098 34.3486ZM36.2461 32.936C36.4214 32.6736 36.515 32.3652 36.515 32.0497C36.515 31.6266 36.3469 31.2208 36.0477 30.9216C35.7485 30.6224 35.3427 30.4543 34.9196 30.4543C34.6041 30.4543 34.2957 30.5479 34.0333 30.7232C33.771 30.8985 33.5665 31.1477 33.4458 31.4392C33.325 31.7307 33.2934 32.0514 33.355 32.3609C33.4165 32.6704 33.5685 32.9546 33.7916 33.1777C34.0147 33.4008 34.2989 33.5528 34.6084 33.6143C34.9179 33.6759 35.2386 33.6443 35.5301 33.5236C35.8217 33.4028 36.0708 33.1983 36.2461 32.936ZM42.9671 30.7232C43.2295 30.5479 43.5379 30.4543 43.8534 30.4543C44.2766 30.4543 44.6823 30.6224 44.9815 30.9216C45.2807 31.2208 45.4488 31.6266 45.4488 32.0497C45.4488 32.3652 45.3552 32.6736 45.1799 32.936C45.0046 33.1983 44.7555 33.4028 44.4639 33.5236C44.1724 33.6443 43.8517 33.6759 43.5422 33.6143C43.2327 33.5528 42.9485 33.4008 42.7254 33.1777C42.5023 32.9546 42.3503 32.6704 42.2888 32.3609C42.2272 32.0514 42.2588 31.7307 42.3796 31.4392C42.5003 31.1477 42.7048 30.8985 42.9671 30.7232Z" fill="#E2E7E9"/>
<path d="M6.16326 20.7957C6.0566 20.6447 5.99955 20.4642 6.00001 20.2793C6.00047 20.0945 6.05842 19.9143 6.16583 19.7638C6.27727 19.6112 6.43158 19.4955 6.60988 19.4321L7.78686 19.049C8.08187 18.9507 8.34997 18.7851 8.57001 18.5654C8.79004 18.3457 8.95597 18.0779 9.0547 17.783L9.44046 16.5908C9.50428 16.4146 9.62182 16.2628 9.7765 16.1568C9.93118 16.0509 10.1152 15.9961 10.3027 16.0003C10.4901 16.0045 10.6715 16.0673 10.8213 16.18C10.9712 16.2927 11.0818 16.4496 11.1378 16.6285L11.5218 17.807C11.62 18.1022 11.7855 18.3704 12.0053 18.5906C12.225 18.8107 12.493 18.9767 12.7879 19.0755L13.9778 19.4629C14.1531 19.5253 14.3046 19.6408 14.4112 19.7933C14.5178 19.9457 14.5742 20.1276 14.5726 20.3137C14.571 20.4997 14.5114 20.6806 14.4022 20.8312C14.293 20.9818 14.1395 21.0946 13.9632 21.154L12.7631 21.5457C12.476 21.644 12.215 21.8062 11.9997 22.02C11.7844 22.2337 11.6204 22.4936 11.5201 22.7799L11.1369 23.9713C11.0744 24.1465 10.9589 24.2978 10.8064 24.4044C10.6539 24.511 10.472 24.5674 10.286 24.5659C10.0999 24.5644 9.91896 24.505 9.76822 24.396C9.61748 24.287 9.50442 24.1337 9.44474 23.9576L9.06327 22.7799C8.96483 22.4833 8.79813 22.2139 8.57658 21.9934C8.35504 21.773 8.08484 21.6076 7.78771 21.5105L6.59531 21.1231C6.42043 21.0614 6.26956 20.9466 6.16326 20.7957Z" fill="#E2E7E9"/>
<path d="M70.0075 33.5994C70.023 33.7023 70.0623 33.8003 70.1222 33.8855C70.2021 33.998 70.315 34.083 70.4454 34.1286L71.0902 34.3393C71.2227 34.3818 71.3426 34.4551 71.4417 34.5542C71.54 34.6524 71.6142 34.7724 71.6592 34.9056L71.8649 35.541C71.9085 35.6739 71.9927 35.7898 72.1058 35.8721C72.2188 35.9545 72.3549 35.9993 72.4948 36C72.6348 36.0007 72.7713 35.9574 72.8853 35.8762C72.9992 35.7951 73.0846 35.6801 73.1295 35.5476L73.3395 34.9039C73.3847 34.7743 73.4593 34.6569 73.5574 34.5608C73.6556 34.4648 73.7746 34.3927 73.9051 34.3501L74.5399 34.1445C74.673 34.1011 74.789 34.0171 74.8716 33.9042C74.9541 33.7913 74.9991 33.6553 75 33.5154C75.0009 33.3756 74.9578 33.239 74.8767 33.125C74.7956 33.011 74.6807 32.9254 74.5483 32.8803L73.9043 32.6705C73.7729 32.626 73.6535 32.5518 73.5555 32.4536C73.4575 32.3553 73.3836 32.2358 73.3395 32.1042L73.1312 31.468C73.0894 31.334 73.0064 31.2166 72.894 31.1326C72.7815 31.0486 72.6454 31.0022 72.505 31.0001C72.3646 30.998 72.2272 31.0402 72.1122 31.1208C71.9973 31.2014 71.9108 31.3162 71.8649 31.4488L71.655 32.0917C71.6117 32.2233 71.5384 32.3432 71.4384 32.4415C71.3397 32.5392 71.2201 32.6133 71.0885 32.658L70.4537 32.8645C70.3552 32.8983 70.2658 32.9545 70.1928 33.0287C70.1197 33.103 70.065 33.1932 70.0328 33.2922C70.0006 33.3912 69.992 33.4964 70.0075 33.5994Z" fill="#E2E7E9"/>
</svg>
