<svg width="40" height="40" viewBox="0 0 40 40" fill="none" xmlns="http://www.w3.org/2000/svg">
<path d="M17.6057 0.761772C18.311 0.264072 19.1536 -0.00213623 20.017 1.14441e-05C20.8804 0.00216293 21.7218 0.272568 22.4245 0.773773C23.137 1.29375 23.6773 2.01373 23.9735 2.84569L25.7625 8.33749C26.2216 9.714 26.9947 10.965 28.0206 11.9917C29.0465 13.0183 30.2973 13.7926 31.674 14.2533L37.2413 16.0532C38.0645 16.351 38.7733 16.8994 39.268 17.6212C39.7628 18.3429 40.0184 19.2016 39.999 20.0762C39.9795 20.9509 39.686 21.7974 39.1596 22.4964C38.6333 23.1955 37.9008 23.7119 37.0652 23.9729L31.562 25.7648C30.1838 26.2231 28.9313 26.9954 27.9032 28.0207C26.8752 29.0461 26.0998 30.2963 25.6384 31.6726L23.8294 37.2244C23.5381 38.0423 22.9989 38.7492 22.2869 39.2466C21.5749 39.744 20.7255 40.0073 19.8568 39.9998C18.9881 39.9924 18.1433 39.7145 17.44 39.2049C16.7367 38.6952 16.2098 37.9792 15.9327 37.1564L14.1036 31.5566C13.6444 30.2172 12.8872 28.9993 11.8889 27.9947C10.8906 26.9901 9.67722 26.225 8.34017 25.7568L2.77686 23.9689C1.95876 23.6772 1.25184 23.1381 0.754255 22.4266C0.256667 21.715 -0.00690284 20.8663 0.000137453 19.9983C0.00717775 19.1302 0.284479 18.2859 0.793542 17.5826C1.30261 16.8792 2.01817 16.3516 2.8409 16.0732L8.34017 14.2933C9.72528 13.8339 10.9832 13.0561 12.0127 12.0224C13.0422 10.9886 13.8146 9.72788 14.2677 8.34149L16.0768 2.77769C16.3649 1.96172 16.9013 1.25775 17.6057 0.761772Z" fill="#E2E7E9"/>
</svg>
