<svg width="24" height="24" viewBox="0 0 24 24" fill="none" xmlns="http://www.w3.org/2000/svg">
<g clip-path="url(#clip0_3244_3193)">
<path d="M12 2C17.523 2 22 6.477 22 12C22 17.523 17.523 22 12 22C10.298 22.0024 8.62371 21.5686 7.137 20.74L6.832 20.562L3.8 21.454C3.635 21.5026 3.46032 21.5083 3.29252 21.4705C3.12471 21.4327 2.96934 21.3526 2.84114 21.238C2.71293 21.1233 2.61614 20.9778 2.55994 20.8152C2.50374 20.6526 2.48999 20.4784 2.52 20.309L2.546 20.2L3.438 17.168C2.49505 15.6093 1.99768 13.8218 2 12C2 6.477 6.477 2 12 2ZM12 4C10.5676 3.99974 9.16146 4.38406 7.92833 5.11281C6.6952 5.84157 5.68036 6.88804 4.98976 8.14294C4.29917 9.39784 3.95816 10.8151 4.00236 12.2468C4.04655 13.6785 4.47432 15.0721 5.241 16.282C5.439 16.594 5.524 16.978 5.457 17.359L5.418 17.522L4.977 19.023L6.478 18.582C6.911 18.454 7.361 18.532 7.718 18.759C8.76633 19.4228 9.95469 19.8336 11.1891 19.959C12.4236 20.0844 13.6703 19.921 14.8307 19.4816C15.9911 19.0422 17.0334 18.3389 17.8752 17.4273C18.717 16.5157 19.3351 15.4208 19.6809 14.2291C20.0266 13.0374 20.0904 11.7817 19.8672 10.5611C19.6441 9.34053 19.14 8.1886 18.395 7.19638C17.6499 6.20415 16.6843 5.39883 15.5744 4.84408C14.4645 4.28933 13.2408 4.00036 12 4ZM9.102 7.184C9.21282 7.13654 9.33402 7.11851 9.45385 7.13165C9.57369 7.14479 9.6881 7.18866 9.786 7.259C10.29 7.627 10.69 8.121 11.034 8.603L11.361 9.077L11.514 9.302C11.6026 9.43096 11.6461 9.58557 11.6378 9.74182C11.6295 9.89806 11.5698 10.0472 11.468 10.166L11.393 10.242L10.469 10.928C10.425 10.9606 10.3941 11.0078 10.3819 11.0611C10.3696 11.1145 10.3767 11.1705 10.402 11.219C10.612 11.599 10.983 12.166 11.409 12.592C11.836 13.018 12.429 13.414 12.835 13.647C12.923 13.697 13.029 13.681 13.101 13.616L13.139 13.571L13.74 12.656C13.8502 12.5088 14.0131 12.4101 14.1946 12.3806C14.3761 12.3512 14.5619 12.3932 14.713 12.498L15.256 12.877C15.796 13.262 16.315 13.676 16.726 14.201C16.802 14.2997 16.8504 14.4168 16.866 14.5404C16.8817 14.664 16.8641 14.7895 16.815 14.904C16.419 15.828 15.416 16.615 14.374 16.577L14.215 16.567L14.024 16.549L13.916 16.535L13.678 16.495C12.754 16.321 11.273 15.797 9.738 14.263C8.204 12.728 7.68 11.247 7.506 10.323L7.466 10.085L7.441 9.877L7.428 9.702L7.424 9.627C7.386 8.583 8.177 7.58 9.102 7.184Z" fill="#F8FBFB"/>
</g>
<defs>
<clipPath id="clip0_3244_3193">
<rect width="24" height="24" fill="white"/>
</clipPath>
</defs>
</svg>
